HIERARCHY
ROOT Hips
{
	OFFSET 0.000000 0.000000 0.000000
	CHANNELS 6 Xposition Yposition Zposition Zrotation Yrotation Xrotation 
	JOINT LeftUpLeg_virtual
	{
		OFFSET 0.000000 0.000000 0.000000
		CHANNELS 3 Zrotation Yrotation Xrotation
		JOINT LeftUpLeg
		{
			OFFSET 8.479694 -4.795517 -0.379053
			CHANNELS 3 Zrotation Yrotation Xrotation
			JOINT LeftLeg
			{
				OFFSET 0.485052 -32.551468 0.112863
				CHANNELS 3 Zrotation Yrotation Xrotation
				JOINT LeftFoot
				{
					OFFSET 0.438033 -32.635670 -3.012641
					CHANNELS 3 Zrotation Yrotation Xrotation
					JOINT LeftToeBase
					{
						OFFSET 0.970169 -13.225353 11.864223
						CHANNELS 3 Zrotation Yrotation Xrotation
						End Site
						{
							OFFSET 0.000000 0.000000 0.000000
						}
					}
				}
			}
		}
	}
	JOINT RightUpLeg_virtual
	{
		OFFSET 0.000000 0.000000 0.000000
		CHANNELS 3 Zrotation Yrotation Xrotation
		JOINT RightUpLeg
		{
			OFFSET -8.479694 -4.795517 -0.379053
			CHANNELS 3 Zrotation Yrotation Xrotation
			JOINT RightLeg
			{
				OFFSET -0.484100 -32.551483 0.112903
				CHANNELS 3 Zrotation Yrotation Xrotation
				JOINT RightFoot
				{
					OFFSET -0.438985 -32.635651 -3.012681
					CHANNELS 3 Zrotation Yrotation Xrotation
					JOINT RightToeBase
					{
						OFFSET -0.970169 -13.225354 11.864223
						CHANNELS 3 Zrotation Yrotation Xrotation
						End Site
						{
							OFFSET 0.000000 0.000000 0.000000
						}
					}
				}
			}
		}
	}
	JOINT Spine_virtual
	{
		OFFSET 0.000000 0.000000 0.000000
		CHANNELS 3 Zrotation Yrotation Xrotation
		JOINT Spine
		{
			OFFSET 0.000000 7.722015 1.166203
			CHANNELS 3 Zrotation Yrotation Xrotation
			JOINT Spine1
			{
				OFFSET 0.000000 12.024086 0.248766
				CHANNELS 3 Zrotation Yrotation Xrotation
				JOINT Spine2
				{
					OFFSET -0.000000 11.503036 -0.491240
					CHANNELS 3 Zrotation Yrotation Xrotation
					JOINT Neck_virtual
					{
						OFFSET 0.000000 0.000000 0.000000
						CHANNELS 3 Zrotation Yrotation Xrotation
						JOINT Neck
						{
							OFFSET 0.000000 18.430687 -3.123054
							CHANNELS 3 Zrotation Yrotation Xrotation
							JOINT Head
							{
								OFFSET -0.000000 9.051071 1.034021
								CHANNELS 3 Zrotation Yrotation Xrotation
								End Site
								{
									OFFSET 0.000000 0.000000 0.000000
								}
							}
						}
					}
					JOINT LeftShoulder_virtual
					{
						OFFSET 0.000000 0.000000 0.000000
						CHANNELS 3 Zrotation Yrotation Xrotation
						JOINT LeftShoulder
						{
							OFFSET 6.197824 13.665230 -4.064723
							CHANNELS 3 Zrotation Yrotation Xrotation
							JOINT LeftArm
							{
								OFFSET 7.778132 -0.187073 -1.709282
								CHANNELS 3 Zrotation Yrotation Xrotation
								JOINT LeftForeArm
								{
									OFFSET 21.954697 0.000000 -2.041093
									CHANNELS 3 Zrotation Yrotation Xrotation
									JOINT LeftHand
									{
										OFFSET 22.992908 0.000000 -0.870901
										CHANNELS 3 Zrotation Yrotation Xrotation
										End Site
										{
											OFFSET 0.000000 0.000000 0.000000
										}
									}
								}
							}
						}
					}
					JOINT RightShoulder_virtual
					{
						OFFSET 0.000000 0.000000 0.000000
						CHANNELS 3 Zrotation Yrotation Xrotation
						JOINT RightShoulder
						{
							OFFSET -6.197824 13.665230 -4.064723
							CHANNELS 3 Zrotation Yrotation Xrotation
							JOINT RightArm
							{
								OFFSET -7.778132 -0.187073 -1.709282
								CHANNELS 3 Zrotation Yrotation Xrotation
								JOINT RightForeArm
								{
									OFFSET -21.954697 0.000000 -2.041093
									CHANNELS 3 Zrotation Yrotation Xrotation
									JOINT RightHand
									{
										OFFSET -22.992908 0.000000 -0.870901
										CHANNELS 3 Zrotation Yrotation Xrotation
										End Site
										{
											OFFSET 0.000000 0.000000 0.000000
										}
									}
								}
							}
						}
					}
				}
			}
		}
	}
}
MOTION
Frames: 5
Frame Time: 0.033333
40.325809 79.550026 0.315288 -179.944312 14.978019 179.977670 -5.058961 1.973088 7.198957 0.083077 -4.401581 -27.695437 9.534541 5.709207 30.496197 -0.440022 -4.464506 -11.570917 0.000000 0.000000 0.000000 -0.586156 2.156098 6.850141 -0.612706 -3.956772 -35.439140 -0.189909 3.641188 50.613570 7.187748 11.974668 -6.529625 0.000000 0.000000 0.000000 -0.449754 3.879469 -2.884638 -1.493732 -2.820334 -2.469412 -0.970476 -1.554689 8.764408 -0.044765 0.056440 -0.010940 -1.021608 -0.390739 8.921064 0.186030 -2.442791 -0.782106 0.000000 0.000000 0.000000 0.333561 0.046431 5.994947 -2.375172 -1.667678 -2.646137 -47.408094 -8.001558 2.499565 3.480818 -51.620312 1.420205 0.000000 0.000000 0.000000 -3.594095 1.518618 5.326048 20.098221 -0.845506 0.532464 27.536743 18.913366 1.506110 -5.602102 64.270728 -5.606966 0.000000 0.000000 0.000000 
40.255344 79.501907 -1.017040 -179.957330 14.307909 179.945295 -5.156842 2.383834 7.203874 -0.033519 -4.384880 -26.814776 9.181795 5.885472 30.923630 -0.859855 -4.723440 -13.000587 0.000000 0.000000 0.000000 -0.658437 2.337215 6.781458 -0.062695 -3.421904 -36.903017 -0.457559 3.504512 44.807219 7.387571 11.733669 -5.009466 0.000000 0.000000 0.000000 -0.617718 4.252317 -2.841782 -1.405979 -2.791085 -2.558560 -0.815160 -1.736304 8.720452 -0.015057 -0.012180 0.003176 -0.867687 -0.539730 8.890933 0.479962 -2.499425 -0.715830 0.000000 0.000000 0.000000 0.431550 -0.150022 6.047236 -2.348295 -2.230746 -2.472988 -45.376744 -9.681835 2.605169 2.434273 -52.453838 1.711171 0.000000 0.000000 0.000000 -3.446133 1.255201 5.311418 21.167432 -0.968089 0.049704 26.873661 21.294559 -1.833793 -6.145644 67.458800 -6.479403 0.000000 0.000000 0.000000 
40.152237 79.356934 -2.327138 -179.974993 13.379811 179.883181 -5.080610 2.707943 7.300000 -0.275079 -4.486359 -26.074761 8.748300 6.098530 31.489747 -1.276295 -4.985732 -14.533954 0.000000 0.000000 0.000000 -0.642094 2.553980 6.782941 0.451169 -2.892106 -38.062462 -0.778448 3.511270 38.743845 7.599595 11.330471 -3.524517 0.000000 0.000000 0.000000 -0.584939 4.416412 -2.801557 -1.280687 -2.792550 -2.610431 -0.755654 -1.887660 8.661017 0.015974 -0.011294 0.007856 -0.859015 -0.894975 8.841481 0.545262 -2.422998 -0.693584 0.000000 0.000000 0.000000 0.436482 -0.279668 6.028057 -2.537401 -2.814970 -2.197248 -43.582536 -11.632763 2.901759 1.929660 -52.708631 1.570586 0.000000 0.000000 0.000000 -3.384924 0.997030 5.349312 22.261253 -1.047088 -0.451045 26.111601 23.396856 -6.067041 -6.255270 68.881256 -6.942894 0.000000 0.000000 0.000000 
40.057556 79.151192 -3.688156 -179.928315 12.257361 179.971250 -4.802617 2.792371 7.370574 -0.524943 -4.485386 -25.477567 8.349555 6.536257 32.264164 -1.768415 -5.367221 -16.091304 0.000000 0.000000 0.000000 -0.506089 2.691215 6.764599 0.794281 -2.062983 -39.056272 -1.111347 3.332822 33.074969 7.797428 10.817554 -2.207522 0.000000 0.000000 0.000000 -0.303766 4.529394 -2.906789 -1.069203 -2.650602 -2.667642 -0.786227 -2.032803 8.612945 0.019787 -0.009249 0.006489 -0.935543 -0.952470 8.818825 0.581403 -2.542602 -0.782697 0.000000 0.000000 0.000000 0.328766 -0.403025 6.108600 -2.795927 -3.332207 -1.950988 -42.096478 -13.771209 2.811355 1.110291 -52.659085 1.917947 0.000000 0.000000 0.000000 -3.438873 0.888977 5.362050 23.286838 -1.346659 -0.937866 25.525846 24.816849 -10.111867 -6.197306 68.510704 -7.218214 0.000000 0.000000 0.000000 
39.997944 78.941170 -5.149932 -179.937673 11.014524 -179.986577 -4.538109 2.778501 7.486634 -0.849227 -4.402769 -24.906814 8.063878 6.756343 33.308947 -2.227221 -5.768470 -17.721901 0.000000 0.000000 0.000000 -0.423530 2.660268 6.664658 1.033410 -1.343034 -39.673666 -1.377832 3.179022 28.189048 7.974209 10.359207 -1.175968 0.000000 0.000000 0.000000 0.060194 4.524955 -3.031278 -0.818316 -2.429246 -2.588705 -0.885255 -2.191375 8.505051 0.042720 -0.003833 -0.004936 -1.102328 -1.259336 8.895846 0.509999 -2.615958 -0.963163 0.000000 0.000000 0.000000 0.175609 -0.640045 6.201351 -3.247023 -3.675247 -1.693820 -40.949662 -15.535417 2.721002 0.574497 -52.620146 2.113124 0.000000 0.000000 0.000000 -3.528211 0.687313 5.520068 24.064995 -1.645707 -1.312038 25.316733 25.488683 -13.218424 -5.900971 66.566955 -7.231519 0.000000 0.000000 0.000000 
